HIERARCHY
ROOT Hips
{
  OFFSET 38.5011 98.7512 3.02672
  CHANNELS 6 Xposition Yposition Zposition Zrotation Xrotation Yrotation
  JOINT spine
  {
    OFFSET 0 8.30103 0.477351
    CHANNELS 3 Zrotation Xrotation Yrotation
    JOINT spine1
    {
      OFFSET 0 10.4565 0
      CHANNELS 3 Zrotation Xrotation Yrotation
      JOINT spine2
      {
        OFFSET 0 10.0192 0
        CHANNELS 3 Zrotation Xrotation Yrotation
        JOINT Neck
        {
          OFFSET 0 25.7235 1.22641
          CHANNELS 3 Zrotation Xrotation Yrotation
          JOINT Head
          {
            OFFSET 0 7.77175 0
            CHANNELS 3 Zrotation Xrotation Yrotation
            End Site
            {
              OFFSET 0 18.812 -6.20394
            }
          }
        }
        JOINT RightShoulder
        {
          OFFSET -4.2188 10.82 -0.587439
          CHANNELS 3 Zrotation Xrotation Yrotation
          JOINT RightArm
          {
            OFFSET 0 14.1914 0
            CHANNELS 3 Zrotation Xrotation Yrotation
            JOINT RightArmRoll
            {
              OFFSET 0 7.16408 0
              CHANNELS 3 Zrotation Xrotation Yrotation
              JOINT RightForeArm
              {
                OFFSET 0 20.8665 0
                CHANNELS 3 Zrotation Xrotation Yrotation
                JOINT RightForeArmRoll
                {
                  OFFSET 0 8.03921 0
                  CHANNELS 3 Zrotation Xrotation Yrotation
                  JOINT RightHand
                  {
                    OFFSET 0 16.133 0
                    CHANNELS 3 Zrotation Xrotation Yrotation
                    End Site
                    {
                      OFFSET 0 0 0
                    }
                  }
                }
              }
            }
          }
        }
        JOINT LeftShoulder
        {
          OFFSET 4.2188 10.82 -0.587439
          CHANNELS 3 Zrotation Xrotation Yrotation
          JOINT LeftArm
          {
            OFFSET 0 14.1914 0
            CHANNELS 3 Zrotation Xrotation Yrotation
            JOINT LeftArmRoll
            {
              OFFSET 0 7.16409 0
              CHANNELS 3 Zrotation Xrotation Yrotation
              JOINT LeftForeArm
              {
                OFFSET 0 20.8665 0
                CHANNELS 3 Zrotation Xrotation Yrotation
                JOINT LeftForeArmRoll
                {
                  OFFSET 0 8.03921 0
                  CHANNELS 3 Zrotation Xrotation Yrotation
                  JOINT LeftHand
                  {
                    OFFSET 0 16.133 0
                    CHANNELS 3 Zrotation Xrotation Yrotation
                    End Site
                    {
                      OFFSET 0 0 0
                    }
                  }
                }
              }
            }
          }
        }
      }
    }
  }
  JOINT RightUpLeg
  {
    OFFSET -7.35773 -1.34921 -1.13181
    CHANNELS 3 Zrotation Xrotation Yrotation
    JOINT RightUpLegRoll
    {
      OFFSET 0 18.9168 0
      CHANNELS 3 Zrotation Xrotation Yrotation
      JOINT RightLeg
      {
        OFFSET 0 -23.4256 0
        CHANNELS 3 Zrotation Xrotation Yrotation
        JOINT RightLegRoll
        {
          OFFSET 0 23.5023 0
          CHANNELS 3 Zrotation Xrotation Yrotation
          JOINT RightFoot
          {
            OFFSET 0 19.5617 0
            CHANNELS 3 Zrotation Xrotation Yrotation
            JOINT RightToeBase
            {
              OFFSET 0 16.3526 0
              CHANNELS 3 Zrotation Xrotation Yrotation
              End Site
              {
                OFFSET 0.00693125 7.91944 -0.912837
              }
            }
          }
        }
      }
    }
  }
  JOINT LeftUpLeg
  {
    OFFSET 7.35773 -1.34921 -1.13181
    CHANNELS 3 Zrotation Xrotation Yrotation
    JOINT LeftUpLegRoll
    {
      OFFSET 0 18.9169 0
      CHANNELS 3 Zrotation Xrotation Yrotation
      JOINT LeftLeg
      {
        OFFSET 0 23.4255 0
        CHANNELS 3 Zrotation Xrotation Yrotation
        JOINT LeftLegRoll
        {
          OFFSET 0 23.7195 0
          CHANNELS 3 Zrotation Xrotation Yrotation
          JOINT LeftFoot
          {
            OFFSET 0 19.3444 0
            CHANNELS 3 Zrotation Xrotation Yrotation
            JOINT LeftToeBase
            {
              OFFSET 0 16.3526 0
              CHANNELS 3 Zrotation Xrotation Yrotation
              End Site
              {
                OFFSET -0.0310629 7.91944 -0.912837
              }
            }
          }
        }
      }
    }
  }
}
MOTION
Frames: 13
Frame Time: 0.00208333
38.3581 98.7819 3.42494 0.6576 -4.95878 0.924641 -0.091127 -1.33985 0.166714 -0.182052 1.32263 0.332519 -0.186148 2.96768 0.335696 1.6922 24.7053 -1.8793 -0.635056 -7.56566 -1.36355 73.7553 -1.27643 -2.31922 107.741 33.7216 -48.2955 -1.934e-005 -1.12017e-005 -1.64823e-006 81.4866 83.5875 -81.4 -6.75091e-008 3.33999e-006 -3.00021 8.02887 -4.95142 0.697676 -65.5293 4.41293 -1.53105 -109.571 30.4868 30.2524 -7.56263e-006 -1.21042e-006 -2.70081e-007 -17.7967 80.1851 18.7495 -7.20887e-007 5.87691e-007 3.01055 -8.02893 -4.95149 -0.697701 175.946 -2.67465 1.46454 -180 7.01534e-015 178.87 175.982 5.68275 179.734 4.21872e-006 1.25001e-006 0.0611718 -18.1874 67.4007 19.0403 8.13649 25.2327 -3.48773 -175.719 -2.40564 0.587788 4.54188e-006 -4.6773e-006 -1.22833 -3.20781 -10.6566 0.452874 1.00787e-006 -5.43582e-006 -0.146851 18.6801 67.8823 -19.4394 -8.13649 25.2327 3.48774 
38.3448 98.7793 3.43712 0.657299 -4.9632 0.942822 -0.0904822 -1.33804 0.166529 -0.180367 1.32633 0.333236 -0.184462 2.97137 0.336381 1.67303 24.7031 -1.88899 -0.584684 -7.56654 -1.37173 73.7773 -1.2645 -2.31592 107.691 33.7521 -48.1309 -1.934e-005 -1.12017e-005 -1.64823e-006 82.2428 83.627 -82.2328 -6.75091e-008 3.33999e-006 -3.00021 8.02887 -4.95142 0.697676 -65.578 4.45208 -1.54388 -109.487 30.4694 30.1406 -7.56263e-006 -1.21042e-006 -2.70081e-007 -17.802 80.2505 18.7848 -7.20887e-007 5.87691e-007 3.01055 -8.02893 -4.95149 -0.697701 175.947 -2.68046 1.46682 -180 7.01534e-015 178.87 175.978 5.68224 179.735 4.21872e-006 1.25001e-006 0.061186 -18.1876 67.401 19.0406 8.13649 25.2327 -3.48773 -175.714 -2.42461 0.577126 4.54188e-006 -4.6773e-006 -1.22834 -3.21731 -10.6255 0.451699 1.00787e-006 -5.43582e-006 -0.146215 18.6603 67.8585 -19.4196 -8.13649 25.2327 3.48774 
38.3459 98.7823 3.42916 0.656637 -4.96718 0.961447 -0.0898639 -1.3363 0.166358 -0.17873 1.32988 0.333933 -0.182824 2.97493 0.337048 1.66027 24.7004 -1.90045 -0.541326 -7.56796 -1.38054 73.798 -1.25586 -2.31398 107.634 33.771 -47.9636 -1.934e-005 -1.12017e-005 -1.64823e-006 83.0872 83.6771 -83.1659 -6.75091e-008 3.33999e-006 -3.00021 8.02887 -4.95142 0.697676 -65.6231 4.49073 -1.557 -109.405 30.4552 30.0196 -7.56263e-006 -1.21042e-006 -2.70081e-007 -17.8041 80.3097 18.8151 -7.20887e-007 5.87691e-007 3.01055 -8.02893 -4.95149 -0.697701 175.949 -2.68608 1.46878 -180 7.01534e-015 178.87 175.974 5.6815 179.735 4.21872e-006 1.25001e-006 0.0612002 -18.188 67.4014 19.041 8.13649 25.2327 -3.48773 -175.709 -2.44017 0.567458 4.54188e-006 -4.6773e-006 -1.22835 -3.22538 -10.5989 0.450708 1.00787e-006 -5.43582e-006 -0.145654 18.6429 67.8376 -19.4021 -8.13649 25.2327 3.48774 
38.3513 98.7783 3.41004 0.655596 -4.97066 0.980472 -0.0892911 -1.33463 0.1662 -0.177182 1.33326 0.334586 -0.181276 2.97831 0.337674 1.655 24.6971 -1.91396 -0.506056 -7.57021 -1.39005 73.8171 -1.2511 -2.31361 107.569 33.7772 -47.7963 -1.934e-005 -1.12017e-005 -1.64823e-006 84.0169 83.7375 -84.1959 -6.75091e-008 3.33999e-006 -3.00021 8.02887 -4.95142 0.697676 -65.6641 4.52882 -1.5705 -109.328 30.4448 29.8904 -7.56263e-006 -1.21042e-006 -2.70081e-007 -17.8024 80.3613 18.8394 -7.20887e-007 5.87691e-007 3.01055 -8.02893 -4.95149 -0.697701 175.952 -2.69148 1.47038 -180 7.01534e-015 178.87 175.97 5.68057 179.735 4.21872e-006 1.25001e-006 0.0612143 -18.1883 67.4019 19.0414 8.13649 25.2327 -3.48773 -175.704 -2.45154 0.559119 4.54188e-006 -4.6773e-006 -1.22835 -3.23163 -10.578 0.449951 1.00787e-006 -5.43582e-006 -0.145188 18.6286 67.8203 -19.3877 -8.13649 25.2327 3.48774 
38.3505 98.7949 3.41217 0.654151 -4.9736 0.99985 -0.0887829 -1.33306 0.166053 -0.175766 1.33645 0.335168 -0.17986 2.98149 0.338233 1.65824 24.6932 -1.92977 -0.479949 -7.5736 -1.40033 73.834 -1.25081 -2.31504 107.497 33.7694 -47.6316 -1.934e-005 -1.12017e-005 -1.64823e-006 85.0298 83.808 -85.32 -6.75092e-008 3.33999e-006 -3.00021 8.02887 -4.95142 0.697676 -65.7003 4.56629 -1.58445 -109.257 30.4391 29.7542 -7.56263e-006 -1.21042e-006 -2.70081e-007 -17.7963 80.4044 18.8564 -7.20887e-007 5.87691e-007 3.01055 -8.02893 -4.95149 -0.697701 175.955 -2.69664 1.47159 -180 7.01534e-015 178.87 175.966 5.6794 179.736 4.21872e-006 1.25001e-006 0.0612284 -18.1888 67.4025 19.0419 8.13649 25.2327 -3.48773 -175.698 -2.45795 0.552443 4.54188e-006 -4.6773e-006 -1.22836 -3.23565 -10.564 0.449478 1.00787e-006 -5.43582e-006 -0.144842 18.6179 67.8074 -19.377 -8.13649 25.2327 3.48774 
38.3487 98.7885 3.41223 0.652282 -4.97597 1.01954 -0.0883584 -1.33158 0.165916 -0.174522 1.33941 0.335656 -0.178617 2.98446 0.338702 1.67105 24.6887 -1.94813 -0.464079 -7.5784 -1.41144 73.8482 -1.25559 -2.31849 107.419 33.7462 -47.472 -1.934e-005 -1.12017e-005 -1.64823e-006 86.1242 83.8882 -86.5363 -6.75091e-008 3.33999e-006 -3.00021 8.02887 -4.95142 0.697676 -65.7311 4.6031 -1.59894 -109.192 30.4388 29.6122 -7.56263e-006 -1.21042e-006 -2.70081e-007 -17.7849 80.4377 18.865 -7.20887e-007 5.87691e-007 3.01055 -8.02893 -4.95149 -0.697701 175.959 -2.70154 1.47237 -180 7.01534e-015 178.87 175.962 5.67798 179.736 4.21872e-006 1.25001e-006 0.0612426 -18.1893 67.4032 19.0425 8.13649 25.2327 -3.48773 -175.693 -2.45861 0.547764 4.54188e-006 -4.6773e-006 -1.22837 -3.23705 -10.558 0.449341 1.00787e-006 -5.43582e-006 -0.144637 18.6116 67.7997 -19.3707 -8.13649 25.2327 3.48774 
38.3445 98.7816 3.40604 0.649729 -4.978 1.04033 -0.0879549 -1.33008 0.165816 -0.173311 1.34244 0.336156 -0.177408 2.98748 0.339186 1.69396 24.6824 -1.96973 -0.458435 -7.5841 -1.42387 73.8616 -1.26545 -2.32413 107.33 33.7033 -47.3072 -1.934e-005 -1.12017e-005 -1.64823e-006 87.3993 83.9833 -87.9534 -6.75091e-008 3.33999e-006 -3.00021 8.02887 -4.95142 0.697676 -65.7569 4.63986 -1.61422 -109.134 30.4431 29.46 -7.56263e-006 -1.21042e-006 -2.70081e-007 -17.7686 80.4619 18.8659 -7.20887e-007 5.87691e-007 3.01055 -8.02893 -4.95149 -0.697701 175.963 -2.70658 1.47276 -180 7.01534e-015 178.87 175.958 5.67621 179.736 4.21872e-006 1.25001e-006 0.0612567 -18.1899 67.4039 19.0432 8.13649 25.2327 -3.48773 -175.686 -2.45338 0.544822 4.54188e-006 -4.6773e-006 -1.22838 -3.2358 -10.5603 0.449547 1.00787e-006 -5.43582e-006 -0.144569 18.6094 67.7971 -19.3685 -8.13649 25.2327 3.48774 
38.3302 98.7863 3.41504 0.646326 -4.97993 1.06286 -0.0875044 -1.32845 0.165773 -0.171982 1.34576 0.336775 -0.176083 2.99081 0.339789 1.72611 24.6735 -1.99478 -0.461769 -7.58994 -1.43794 73.876 -1.27971 -2.33181 107.225 33.6387 -47.1272 -1.934e-005 -1.12017e-005 -1.64823e-006 88.9556 84.0951 -89.6796 -6.75091e-008 3.33999e-006 -3.00021 8.02887 -4.95142 0.697676 -65.7786 4.67711 -1.63037 -109.081 30.4508 29.2928 -7.56263e-006 -1.21042e-006 -2.70081e-007 -17.7479 80.4787 18.8608 -7.20887e-007 5.87691e-007 3.01055 -8.02893 -4.95149 -0.697701 175.968 -2.71208 1.4728 -180 7.01534e-015 178.87 175.954 5.67401 179.736 4.21872e-006 1.25001e-006 0.0612708 -18.1906 67.4048 19.044 8.13649 25.2327 -3.48773 -175.679 -2.44311 0.543041 4.54188e-006 -4.6773e-006 -1.2284 -3.23232 -10.5698 0.450044 1.00787e-006 -5.43582e-006 -0.144608 18.6105 67.7985 -19.3696 -8.13649 25.2327 3.48774 
38.3346 98.7896 3.40979 0.642193 -4.98169 1.08685 -0.0870178 -1.32674 0.165779 -0.17056 1.34929 0.337489 -0.174668 2.99434 0.340489 1.76653 24.6625 -2.02279 -0.473297 -7.59593 -1.45339 73.8908 -1.29793 -2.3413 107.108 33.5548 -46.9342 -1.934e-005 -1.12017e-005 -1.64823e-006 90.7962 84.2187 -91.7146 -6.75091e-008 3.33999e-006 -3.00021 8.02887 -4.95142 0.697676 -65.7967 4.71463 -1.64724 -109.033 30.4615 29.1117 -7.56263e-006 -1.21042e-006 -2.70081e-007 -17.7231 80.4888 18.8499 -7.20887e-007 5.87691e-007 3.01055 -8.02893 -4.95149 -0.697701 175.974 -2.7179 1.47251 -180 7.01534e-015 178.87 175.95 5.67148 179.737 4.21872e-006 1.25001e-006 0.0612849 -18.1914 67.4058 19.0448 8.13649 25.2327 -3.48773 -175.671 -2.4284 0.542278 4.54188e-006 -4.6773e-006 -1.22841 -3.22692 -10.5856 0.45079 1.00787e-006 -5.43582e-006 -0.14474 18.6145 67.8034 -19.3737 -8.13649 25.2327 3.48774 
38.3427 98.7867 3.3986 0.637449 -4.98322 1.112 -0.0865063 -1.32498 0.165824 -0.16907 1.35293 0.338275 -0.173187 2.99798 0.341259 1.81424 24.6498 -2.05332 -0.492237 -7.60207 -1.46997 73.9059 -1.31966 -2.35239 106.98 33.4543 -46.731 -1.934e-005 -1.12017e-005 -1.64823e-006 92.9222 84.3489 -94.0567 -6.75092e-008 3.33999e-006 -3.00021 8.02887 -4.95142 0.697676 -65.8114 4.75221 -1.66467 -108.988 30.4747 28.9174 -7.56263e-006 -1.21042e-006 -2.70081e-007 -17.6946 80.4927 18.8338 -7.20887e-007 5.87691e-007 3.01055 -8.02893 -4.95149 -0.697701 175.981 -2.72388 1.47192 -180 7.01534e-015 178.87 175.945 5.66864 179.737 4.21872e-006 1.25001e-006 0.0612989 -18.1923 67.4069 19.0458 8.13649 25.2327 -3.48773 -175.663 -2.40988 0.542394 4.54188e-006 -4.6773e-006 -1.22843 -3.21991 -10.6067 0.451746 1.00787e-006 -5.43582e-006 -0.14495 18.621 67.8113 -19.3802 -8.13649 25.2327 3.48774 
38.3371 98.7937 3.39832 0.632212 -4.98445 1.13805 -0.085981 -1.32322 0.165899 -0.167538 1.35658 0.339106 -0.171664 3.00163 0.342077 1.86826 24.6359 -2.0859 -0.517808 -7.60834 -1.48744 73.9209 -1.34447 -2.36483 106.842 33.3396 -46.52 -1.934e-005 -1.12017e-005 -1.64823e-006 95.3318 84.4804 -96.7004 -6.75091e-008 3.33999e-006 -3.00021 8.02887 -4.95142 0.697676 -65.823 4.78964 -1.6825 -108.946 30.4902 28.7108 -7.56263e-006 -1.21042e-006 -2.70081e-007 -17.6626 80.4909 18.8129 -7.20887e-007 5.87691e-007 3.01055 -8.02893 -4.95149 -0.697701 175.989 -2.7299 1.47102 -180 7.01534e-015 178.87 175.941 5.66556 179.737 4.21872e-006 1.25001e-006 0.061313 -18.1932 67.4081 19.0469 8.13649 25.2327 -3.48773 -175.654 -2.38817 0.543246 4.54188e-006 -4.6773e-006 -1.22846 -3.2116 -10.6319 0.45287 1.00787e-006 -5.43582e-006 -0.145224 18.6296 67.8216 -19.3888 -8.13649 25.2327 3.48774 
38.3383 98.7941 3.39145 0.626602 -4.98532 1.16469 -0.085453 -1.3215 0.165993 -0.16599 1.36015 0.33996 -0.170126 3.0052 0.342917 1.9276 24.6214 -2.12006 -0.549226 -7.61476 -1.50555 73.9354 -1.37192 -2.37841 106.698 33.2133 -46.3035 -1.934e-005 -1.12017e-005 -1.64823e-006 98.0165 84.6082 -99.634 -6.75091e-008 3.33999e-006 -3.0002 8.02887 -4.95142 0.697676 -65.8319 4.82672 -1.70058 -108.906 30.5075 28.4928 -7.56263e-006 -1.21042e-006 -2.70081e-007 -17.6275 80.4841 18.7876 -7.20887e-007 5.87691e-007 3.01055 -8.02893 -4.95149 -0.697701 175.997 -2.7358 1.46984 -180 7.01534e-015 178.87 175.936 5.66228 179.737 4.21872e-006 1.25001e-006 0.0613271 -18.1942 67.4094 19.048 8.13649 25.2327 -3.48773 -175.645 -2.3639 0.544695 4.54188e-006 -4.6773e-006 -1.22848 -3.20228 -10.6605 0.454124 1.00787e-006 -5.43582e-006 -0.145547 18.6397 67.8339 -19.3991 -8.13649 25.2327 3.48774 
38.3396 98.7874 3.38922 0.620737 -4.98577 1.19165 -0.0849333 -1.31987 0.166097 -0.16445 1.36355 0.340812 -0.168597 3.0086 0.343756 1.99129 24.6068 -2.15533 -0.58571 -7.62132 -1.52404 73.949 -1.40157 -2.3929 106.548 33.078 -46.0841 -1.934e-005 -1.12017e-005 -1.64823e-006 100.958 84.7272 -102.836 -6.75091e-008 3.33999e-006 -3.0002 8.02887 -4.95142 0.697676 -65.8384 4.86322 -1.71874 -108.867 30.5263 28.2644 -7.56263e-006 -1.21042e-006 -2.70081e-007 -17.5897 80.4727 18.7583 -7.20887e-007 5.87691e-007 3.01055 -8.02893 -4.95149 -0.697701 176.005 -2.74145 1.4684 -180 7.01534e-015 178.87 175.932 5.65886 179.737 4.21872e-006 1.25001e-006 0.0613411 -18.1953 67.4107 19.0491 8.13649 25.2327 -3.48773 -175.635 -2.33769 0.546598 4.54188e-006 -4.6773e-006 -1.2285 -3.19227 -10.6913 0.455465 1.00787e-006 -5.43582e-006 -0.145904 18.6511 67.8476 -19.4105 -8.13649 25.2327 3.48774 
